<svg width="172" height="50" viewBox="0 0 172 50" fill="none" xmlns="http://www.w3.org/2000/svg">
    <path fill-rule="evenodd" clip-rule="evenodd" d="M54.5199 9.38002V14.1844H50.87V18.9888H54.5199V30.8853C54.5102 34.3313 55.1433 36.6944 56.5729 38.2063C57.7811 39.4776 59.7331 40.2653 62.0477 40.2653C64.1647 40.2653 65.9056 39.9502 66.8382 39.579V34.7746C66.0112 34.909 65.3781 34.9615 64.3289 35.0034C61.7379 34.9615 60.8938 33.3861 60.9071 30.199V18.9888H67.0663V14.1844H60.9071V7.54978L54.5199 9.38002ZM89.6498 14.4132H87.1406V29.9702C87.1478 31.0083 86.9378 31.9999 86.6843 32.7156C85.5727 35.2876 82.8951 37.8447 79.1565 37.7487C74.232 37.8447 72.552 33.9307 72.5411 28.5975V14.4132H70.0318V29.0551C70.0318 38.4187 75.4396 40.0365 78.7002 40.0365C83.1051 40.0365 85.9927 37.3228 87.1406 35.0034H87.3687L87.5968 39.3502H89.878C89.7205 37.5316 89.6679 35.5485 89.6498 33.4019V14.4132ZM96.0371 39.579H98.5464V2.28784H96.0371V39.579ZM123.639 26.5385V25.1658C123.639 21.499 122.06 13.7268 113.83 13.7268C107.267 13.7268 102.424 18.9783 102.424 27.4536C102.424 34.7851 106.952 40.0365 114.286 40.0365C118.638 40.0365 121.218 38.9337 122.271 38.4351L121.586 36.376C120.112 37.1482 118.217 37.8834 114.515 37.9775C109.321 37.8834 104.899 34.68 104.934 26.5385H123.639ZM105.162 24.4795C105.636 20.6501 108.007 15.7859 113.602 15.7859C119.706 15.7859 121.181 21.0124 121.13 24.4795H105.162ZM143.485 23.5644C143.57 19.1774 142.136 13.7268 134.817 13.7268C132.473 13.7268 129.606 14.3557 127.289 15.7859L127.973 17.6161C129.924 16.3997 132.26 15.8232 134.589 15.7859C140.543 15.7708 141.021 20.7497 140.976 23.1068V23.7931C130.615 23.7895 125.464 27.301 125.464 33.1731C125.464 36.4727 127.8 40.0365 132.992 40.0365C137.039 40.0365 139.853 37.7829 141.204 35.9185L141.66 39.3502H143.942C143.623 37.5208 143.57 35.4769 143.485 33.4019V23.5644ZM140.976 31.5717C140.976 31.8813 140.924 32.4545 140.748 32.9443C139.872 35.4244 137.454 37.9775 133.22 37.9775C130.62 37.9775 128.202 36.3623 128.202 32.7156C128.202 26.7751 135.456 25.9415 140.976 26.0809V31.5717ZM149.188 49.874H151.698V35.4609H151.926C153.568 38.437 156.799 40.0634 160.366 40.0365C166.598 40.0634 172 35.4466 172 26.5385C172 19.0781 167.604 13.7268 161.05 13.7268C156.64 13.7268 153.515 15.7729 151.698 18.9888H151.469V14.4132H148.96C149.119 16.7172 149.172 19.183 149.188 22.4205V49.874ZM151.698 24.7083C151.698 23.9368 151.91 23.148 152.154 22.4205C153.185 18.31 156.797 15.7859 160.594 15.7859C166.304 15.7859 169.491 20.8868 169.491 26.5385C169.491 33.2973 166.145 37.9775 160.366 37.9775C156.372 37.9775 152.972 35.4533 151.926 31.5717C151.751 30.9309 151.698 30.2472 151.698 29.5126V24.7083Z" fill="white"/>
    <path fill-rule="evenodd" clip-rule="evenodd" d="M22.9469 19.5754C22.0052 20.4379 18.8866 23.1773 18.8878 23.1762C17.5844 24.3399 16.7292 25.17 16.1305 25.889C16.0955 25.8715 11.0568 23.1548 10.6491 22.895C11.0064 22.0474 11.486 20.9266 11.8291 20.1894C12.4444 18.867 13.6055 16.8385 13.6055 16.8385C13.6055 16.8385 12.5548 15.2516 11.2363 13.4884C9.9177 11.7252 8.07171 10.1384 6.31363 10.1384C4.55555 10.1384 3.03865 14.1946 3.03865 14.1946C3.03865 14.1946 2.86284 16.9275 5.14834 19.8368C7.28435 22.5557 9.80425 23.8886 10.1248 24.0514C10.5299 24.2901 15.1659 26.7852 15.3879 26.8967C13.2529 30.1487 12.7012 34.4313 13.6055 38.0592C13.7742 38.736 14.0605 39.478 14.4489 40.2771C14.8094 41.0187 15.2518 41.797 15.7581 42.5977C16.2553 43.3839 16.787 44.1497 17.3188 44.8656C17.4763 45.0776 17.6244 45.2724 17.7604 45.4479C14.8752 45.1808 12.2866 43.7347 10.5984 42.6701C-1.00494 35.3529 -2.56468 22.0399 3.41279 11.3726C7.30446 4.42759 14.1146 16.0459 14.1146 16.0459C14.1146 16.0459 16.9275 11.4616 22.8171 5.81939C23.3185 6.58459 23.6961 7.49442 24.247 8.60874C26.7074 1.49871 27.6522 0.0475143 29.2341 0.000853169C33.6037 -0.12804 40.6616 14.3709 37.1454 27.5948C34.787 36.4646 25.1883 44.8156 19.373 45.4523C18.8878 44.8656 18.4857 44.3705 18.3057 44.1282C17.7912 43.4356 17.2767 42.6946 16.7974 41.9366C16.314 41.1723 15.8938 40.4329 15.5551 39.7362C15.2015 39.0087 14.9451 38.3441 14.7994 37.7598C13.9112 34.1966 14.568 29.9152 16.8864 26.9149C17.431 26.2102 18.291 25.3615 19.7061 24.0981C19.6964 24.1067 22.8239 21.3596 23.7768 20.4867C27.9708 16.645 30.4339 13.571 31.321 10.3938C32.541 6.60707 32.5316 3.61454 32.1574 3.08559C32.1574 3.08559 30.4647 0.79429 29.322 0.882449C28.1792 0.970609 27.1469 3.26191 26.9711 3.7027C26.7953 4.1435 26.0041 6.17117 24.7735 9.43308C24.9671 9.86997 25.6005 11.4702 26.2453 13.0485C26.5449 13.7817 26.841 14.6203 27.0916 15.3382C25.9904 16.6544 24.6121 18.05 22.9469 19.5754Z" fill="#FF8F00"/>
</svg>
