<svg xmlns="http://www.w3.org/2000/svg" width="180mm" height="180mm" viewBox="0 0 680.315 680.315" clip-rule="evenodd" fill-rule="evenodd" image-rendering="optimizeQuality" shape-rendering="geometricPrecision" text-rendering="geometricPrecision"><g transform="translate(-261 261)"><circle cx="600.641" cy="79.674" r="283.895" fill="#fff"/><path d="M583.091 133.356l87.75-267.378c1.032-3.097 3.097-7.226 1.032-11.355-3.097-9.292-13.42-9.292-19.614-3.098C571.736-61.758 491.213 25.992 410.69 112.71c-4.13 4.129-6.194 6.194-5.162 12.388 1.033 5.161 6.194 8.259 11.356 8.259z" fill="#f4cb23"/><path d="M619.224 24.96l-87.75 267.377c-1.032 3.097-3.097 7.226-1.032 11.355 3.097 9.291 13.42 9.291 19.614 3.097 80.523-86.717 161.046-174.466 241.569-261.183 4.13-4.13 6.194-6.194 5.162-12.388-1.033-5.162-6.194-8.259-11.356-8.259z" fill="#498fe1"/></g></svg>