<svg id="image_3" data-name="image 3" xmlns="http://www.w3.org/2000/svg" width="204.787" height="205.043" viewBox="0 0 204.787 205.043">
  <path id="Path_21" data-name="Path 21" d="M92.149,36.7A55.549,55.549,0,1,0,147.7,92.249,55.5,55.5,0,0,0,92.149,36.7Zm0,93.69a38.4,38.4,0,1,1,38.4-38.4A38.346,38.346,0,0,1,92.149,130.39Z" transform="translate(57.09 57.246)" fill="#556b2f"/>
  <path id="Path_22" data-name="Path 22" d="M170.741,0A34.031,34.031,0,0,0,136.7,34.046a34.046,34.046,0,0,1-68.092,0C68.6,15.359,52.989,0,34.046,0a34.046,34.046,0,1,0,0,68.092,34.046,34.046,0,1,1,0,68.092C15.359,136.184,0,151.8,0,170.741a34.046,34.046,0,0,0,68.092,0A102.365,102.365,0,0,1,170.485,68.348,34.031,34.031,0,0,0,204.531,34.3,33.871,33.871,0,0,0,170.741,0ZM34.046,51.2A17.152,17.152,0,0,1,16.895,34.046h0A17.152,17.152,0,0,1,34.046,16.895h0A17.152,17.152,0,0,1,51.2,34.046h0A17.152,17.152,0,0,1,34.046,51.2Zm0,136.44a17.023,17.023,0,1,1-.256-34.046H34.3a17.023,17.023,0,1,1-.256,34.046ZM170.741,51.2a17.152,17.152,0,0,1-17.151-17.151h0a17.152,17.152,0,0,1,17.151-17.151h0a17.152,17.152,0,0,1,17.151,17.151h0A17.318,17.318,0,0,1,170.741,51.2Z" transform="translate(0 0)" fill="#556b2f"/>
</svg>
