<svg xmlns="http://www.w3.org/2000/svg" width="128" height="32" fill="none">
  <style type="text/css">
    @media (prefers-color-scheme: dark) {
        #halfcircle {
            fill: #c59333;
        }

        #logo_text {
            fill: #ffffff;
        }
    }
</style>
  <path id="halfcircle" fill="#FFAD0F" d="M28.06 8.25a.95.95 0 0 0 .34-1.35A15.5 15.5 0 0 0 1.6 22.37c.25.5.86.66 1.34.38L15.5 15.5l12.56-7.25Z"/>
  <path id="logo_text" fill="#0A0A0A" fill-rule="evenodd" d="m13.2 8.84 12.56 3.36-3.37 12.56-12.55-3.37L13.2 8.84ZM12.14 7l-.39 1.45L8.4 21 8 22.45l1.45.39L22 26.2l1.45.4.39-1.46L27.2 12.6l.4-1.45-1.46-.39L13.6 7.4 12.14 7Zm27.28.27V21h1.66v-5.8h3.45a4.5 4.5 0 0 0 3.17-1.06c.8-.72 1.19-1.7 1.19-2.95 0-1.28-.39-2.26-1.17-2.92a4.7 4.7 0 0 0-3.19-1h-5.1Zm7.08 5.83c-.5.42-1.23.63-2.18.63h-3.24V8.76h3.24c.92 0 1.64.22 2.16.65.51.43.77 1.04.77 1.83 0 .8-.25 1.43-.75 1.86Zm5.74 7.41a4.8 4.8 0 0 0 2.52.67 4.68 4.68 0 0 0 4.27-2.52c.42-.8.63-1.69.63-2.68 0-.97-.21-1.85-.63-2.63a4.82 4.82 0 0 0-4.27-2.48c-.93 0-1.77.22-2.52.66a4.59 4.59 0 0 0-1.72 1.82 5.58 5.58 0 0 0-.62 2.63c0 1 .2 1.89.62 2.68.42.8 1 1.41 1.72 1.85Zm4.22-1.18a3.15 3.15 0 0 1-3.4.02 3.5 3.5 0 0 1-1.2-1.4 4.44 4.44 0 0 1-.43-1.97c0-.71.15-1.35.44-1.93a3.15 3.15 0 0 1 2.9-1.84 3.3 3.3 0 0 1 2.92 1.85c.28.59.42 1.22.42 1.92a4.3 4.3 0 0 1-.45 1.98 3.42 3.42 0 0 1-1.2 1.37Zm12.48-7.82a4.2 4.2 0 0 0-2.32-.64c-.73 0-1.34.13-1.82.4-.47.26-.93.7-1.4 1.34l-.25-.16c.08-.1.13-.22.16-.32.03-.12.05-.27.05-.44v-.64h-1.53v13.73h1.53v-4.43a1.33 1.33 0 0 0-.21-.75l.25-.17c.47.64.93 1.09 1.4 1.35.48.27 1.09.4 1.82.4a4.14 4.14 0 0 0 3.87-2.47 6.3 6.3 0 0 0 .56-2.7c0-1-.19-1.9-.56-2.68a4.19 4.19 0 0 0-1.55-1.82Zm-4.1 1.2a2.86 2.86 0 0 1 1.64-.5c.6 0 1.14.17 1.6.51a3 3 0 0 1 1.06 1.35c.25.58.38 1.22.38 1.94a4.9 4.9 0 0 1-.38 1.97c-.24.57-.6 1.03-1.06 1.36a2.7 2.7 0 0 1-1.6.49 2.8 2.8 0 0 1-1.64-.49 3.47 3.47 0 0 1-1.14-1.36 4.66 4.66 0 0 1-.4-1.97c0-.72.14-1.36.4-1.94a3.3 3.3 0 0 1 1.14-1.37Zm9.73 7.39a6.46 6.46 0 0 0 3.76 1.08c1.54 0 2.72-.36 3.55-1.08a3.66 3.66 0 0 0 1.26-2.93 3.31 3.31 0 0 0-2.25-3.33c-.62-.24-1.45-.47-2.47-.69-.8-.17-1.44-.33-1.9-.48a3.07 3.07 0 0 1-1.16-.69c-.3-.31-.45-.73-.45-1.26 0-.67.24-1.2.72-1.58.5-.39 1.2-.58 2.11-.58a4 4 0 0 1 2.2.6 2.73 2.73 0 0 1 1.2 1.89h1.6a4.27 4.27 0 0 0-1.7-2.97 5.49 5.49 0 0 0-3.28-1c-.89 0-1.68.16-2.36.47-.67.3-1.2.74-1.58 1.32a3.55 3.55 0 0 0-.56 2c0 .84.2 1.5.61 1.98.4.48.9.82 1.5 1.04.58.2 1.36.4 2.32.61.85.18 1.53.36 2.03.54.5.17.92.43 1.26.8.34.34.5.82.5 1.43 0 .8-.27 1.41-.8 1.82-.53.41-1.29.61-2.27.61-.99 0-1.86-.22-2.61-.66a3.16 3.16 0 0 1-1.43-2.2H72.7a4.58 4.58 0 0 0 1.87 3.26Zm17.9-8.59a4.2 4.2 0 0 0-2.33-.64c-.73 0-1.34.13-1.82.4-.47.26-.94.7-1.4 1.34l-.26-.16c.09-.1.14-.22.17-.32.03-.12.05-.27.05-.44v-.64h-1.53v13.73h1.53v-4.43a1.33 1.33 0 0 0-.22-.75l.26-.17a4.5 4.5 0 0 0 1.4 1.35c.48.27 1.09.4 1.82.4A4.14 4.14 0 0 0 94 18.71a6.3 6.3 0 0 0 .56-2.7c0-1-.19-1.9-.56-2.68a4.19 4.19 0 0 0-1.55-1.82Zm-4.11 1.2a2.86 2.86 0 0 1 1.63-.5c.62 0 1.15.17 1.6.51a3 3 0 0 1 1.07 1.35c.25.58.38 1.22.38 1.94a4.9 4.9 0 0 1-.38 1.97c-.24.57-.6 1.03-1.06 1.36a2.7 2.7 0 0 1-1.6.49 2.8 2.8 0 0 1-1.64-.49 3.47 3.47 0 0 1-1.14-1.36 4.66 4.66 0 0 1-.4-1.97c0-.72.14-1.36.4-1.94a3.3 3.3 0 0 1 1.14-1.37Zm8.83 7.71c.59.5 1.38.76 2.38.76.51 0 .96-.05 1.33-.14.38-.09.72-.23 1.02-.44.44-.28.81-.69 1.14-1.2l.25.1c-.12.39-.18.73-.18 1.03V21h1.53v-5.87c0-.6-.06-1.18-.18-1.74a2.85 2.85 0 0 0-.86-1.5 3.32 3.32 0 0 0-1.28-.75 4.84 4.84 0 0 0-1.64-.27c-1 0-1.87.28-2.63.84a3.49 3.49 0 0 0-1.36 2.32h1.53c.12-.55.4-.99.84-1.31.46-.34 1-.5 1.6-.5.77 0 1.38.22 1.84.68.42.42.62 1.01.61 1.78l-3.54.69c-1 .2-1.76.51-2.3.93-.64.5-.96 1.19-.96 2.05 0 .88.29 1.57.86 2.07Zm4.14-.93c-.48.23-1 .34-1.58.34-.58 0-1.04-.14-1.39-.41-.33-.28-.5-.65-.5-1.1 0-.42.14-.77.41-1.05.35-.32.9-.55 1.64-.7l1.28-.25 2.32-.49.05.3a.36.36 0 0 0-.27.14c-.06.08-.1.21-.14.4l-.13.59a3.21 3.21 0 0 1-1.69 2.22Zm7.69 1.02c.73.45 1.57.67 2.5.67 1.13 0 2.09-.3 2.88-.9.8-.6 1.32-1.43 1.53-2.48h-1.64c-.16.6-.5 1.1-1 1.47-.5.37-1.08.56-1.77.56-.62 0-1.19-.16-1.69-.49a3.5 3.5 0 0 1-1.19-1.36 4.65 4.65 0 0 1-.41-2c0-.72.14-1.36.43-1.93a3.4 3.4 0 0 1 1.17-1.35 3.1 3.1 0 0 1 1.7-.48 2.85 2.85 0 0 1 2.7 1.81h1.63a3.82 3.82 0 0 0-1.51-2.3 4.58 4.58 0 0 0-2.83-.86c-.93 0-1.77.22-2.5.66a4.47 4.47 0 0 0-1.71 1.82 5.7 5.7 0 0 0-.61 2.63c0 1 .2 1.89.61 2.68.4.8.98 1.41 1.71 1.85Zm10.83 0c.74.45 1.58.67 2.52.67 1.17 0 2.15-.31 2.93-.94a5.02 5.02 0 0 0 1.66-2.44h-1.64c-.23.58-.6 1.07-1.12 1.45-.51.39-1.13.58-1.85.58-.7 0-1.34-.23-1.9-.68a3.89 3.89 0 0 1-1.21-1.84l-.11-.34c-.03-.13-.06-.22-.11-.27-.04-.06-.1-.1-.22-.13l.06-.29c.2.03.42.04.66.04h7.62v-.54a5 5 0 0 0-.67-2.65 4.42 4.42 0 0 0-1.76-1.69 5.04 5.04 0 0 0-4.95.15 4.73 4.73 0 0 0-1.66 1.9 5.7 5.7 0 0 0-.57 2.56c0 .97.2 1.85.6 2.63.42.78.99 1.39 1.72 1.83Zm-.29-5.45c-.13.05-.26.13-.4.25l-.2-.21c.13-.1.2-.18.24-.24a.63.63 0 0 0 .07-.25 3.16 3.16 0 0 1 1.35-1.93c.5-.3 1.09-.46 1.75-.46.65 0 1.23.15 1.74.46a2.83 2.83 0 0 1 1.35 1.93l.08.27a.8.8 0 0 0 .23.22l-.2.21a1.61 1.61 0 0 0-1.03-.34h-4.46c-.2 0-.38.03-.52.09Z" clip-rule="evenodd"/>
</svg>
